<svg viewBox="0 0 64 64" xmlns="http://www.w3.org/2000/svg"><path d="M60 32a28.02 28.02 0 0 1-26 27.92c-.66.06-1.33.08-2 .08a28 28 0 0 1 0-56c.67 0 1.34.02 2 .08A28.02 28.02 0 0 1 60 32Z" fill="#14fc3a" class="fill-fcb316"></path><ellipse cx="34" cy="32" rx="26" ry="27.92" fill="#14fc3a" class="fill-ffcb29"></ellipse><path d="M43 36.69a8.023 8.023 0 0 1-2.56 6.24C38.57 44.6 35.7 45.5 32 45.5s-6.57-.9-8.44-2.57A8.023 8.023 0 0 1 21 36.69a5.28 5.28 0 0 1 1.36-4.05c1.518-1.368 3.766-1.2 6.42-1.01a46.138 46.138 0 0 0 6.44 0c2.67-.2 4.9-.355 6.42 1.01A5.28 5.28 0 0 1 43 36.69Z" fill="#ef5451" class="fill-ef5451"></path><path d="M41.55 32.57a2.871 2.871 0 0 1-.05.77c-1.04 3.13-3.49 5.16-6.23 5.16h-6.54c-2.73 0-5.17-2.01-6.22-5.12a3.251 3.251 0 0 1-.05-.82c1.48-1.28 3.73-1.12 6.32-.93a46.138 46.138 0 0 0 6.44 0c2.61-.19 4.85-.35 6.33.94Z" fill="#ffffff" class="fill-ffffff"></path><path d="M40.44 42.48v.45C38.57 44.6 35.7 45.5 32 45.5s-6.57-.9-8.44-2.57v-.45a1.036 1.036 0 0 1 .19-.59 6.245 6.245 0 0 1 4.98-2.72h6.54a6.261 6.261 0 0 1 4.98 2.71 1.068 1.068 0 0 1 .19.6Z" fill="#e53a35" class="fill-e53a35"></path><path d="M42 18.5c-2.243 0-4 2.636-4 6a1 1 0 0 0 2 0c0-2.29 1.056-4 2-4s2 1.71 2 4a1 1 0 0 0 2 0c0-3.364-1.757-6-4-6ZM22 18.5c-2.243 0-4 2.636-4 6a1 1 0 0 0 2 0c0-2.29 1.056-4 2-4s2 1.71 2 4a1 1 0 0 0 2 0c0-3.364-1.757-6-4-6Z" fill="#455b64" class="fill-455b64"></path></svg>