<svg viewBox="0 0 64 64" xmlns="http://www.w3.org/2000/svg"><path d="M60 32a28.02 28.02 0 0 1-26 27.92c-.66.06-1.33.08-2 .08a28 28 0 0 1 0-56c.67 0 1.34.02 2 .08A28.02 28.02 0 0 1 60 32Z" fill="#9cfa7f" class="fill-fcb316"></path><ellipse cx="34" cy="32" rx="26" ry="27.92" fill="#9cfa7f" class="fill-ffcb29"></ellipse><path d="M32 42.587a21.482 21.482 0 0 1-11.537-3.345 1 1 0 1 1 1.074-1.687 19.56 19.56 0 0 0 20.926 0 1 1 0 1 1 1.074 1.687A21.482 21.482 0 0 1 32 42.587Z" fill="#f04f4f" class="fill-ef5451"></path><ellipse cx="42" cy="27.398" rx="4" ry="6" fill="#455b64" class="fill-455b64"></ellipse><ellipse cx="22" cy="27.398" rx="4" ry="6" fill="#455b64" class="fill-455b64"></ellipse></svg>