<svg viewBox="0 0 64 64" xmlns="http://www.w3.org/2000/svg"><path d="M60 32a28.02 28.02 0 0 1-26 27.92c-.66.06-1.33.08-2 .08a28 28 0 0 1 0-56c.67 0 1.34.02 2 .08A28.02 28.02 0 0 1 60 32Z" fill="#ff0000" class="fill-fcb316"></path><ellipse cx="34" cy="32" rx="26" ry="27.92" fill="#ff0000" class="fill-ffcb29"></ellipse><path d="M43 43.49a5.283 5.283 0 0 1-1.31 3.99c-1.487 1.432-3.79 1.258-6.47 1.06a46.138 46.138 0 0 0-6.44 0c-2.208.139-4.89.488-6.47-1.06A5.283 5.283 0 0 1 21 43.49c0-5.61 4.01-8.82 11-8.82s11 3.21 11 8.82Z" fill="#ef5451" class="fill-ef5451"></path><path d="M41.69 47.48c-1.487 1.432-3.79 1.258-6.47 1.06a46.138 46.138 0 0 0-6.44 0c-2.208.139-4.89.488-6.47-1.06.87-3.36 3.42-5.81 6.42-5.81h6.54c3 0 5.55 2.45 6.42 5.81Z" fill="#e53a35" class="fill-e53a35"></path><ellipse cx="42" cy="27" rx="4" ry="6" fill="#455b64" class="fill-455b64"></ellipse><ellipse cx="22" cy="27" rx="4" ry="6" fill="#455b64" class="fill-455b64"></ellipse><path d="M45 19a5.006 5.006 0 0 1-5-5 1 1 0 0 1 2 0 3 3 0 0 0 3 3 1 1 0 0 1 0 2ZM19 19a1 1 0 0 1 0-2 3 3 0 0 0 3-3 1 1 0 0 1 2 0 5.006 5.006 0 0 1-5 5Z" fill="#faa629" class="fill-faa629"></path></svg>