<svg viewBox="0 0 64 64" xmlns="http://www.w3.org/2000/svg"><path d="M60 32a28.02 28.02 0 0 1-26 27.92c-.66.06-1.33.08-2 .08a28 28 0 0 1 0-56c.67 0 1.34.02 2 .08A28.02 28.02 0 0 1 60 32Z" fill="#f8ff6b" class="fill-fcb316"></path><ellipse cx="34" cy="32" rx="26" ry="27.92" fill="#f8ff6b" class="fill-ffcb29"></ellipse><ellipse cx="42" cy="27.5" rx="4" ry="6" fill="#455b64" class="fill-455b64"></ellipse><ellipse cx="22" cy="27.5" rx="4" ry="6" fill="#455b64" class="fill-455b64"></ellipse><path d="M39 42.5H25a1 1 0 0 1 0-2h14a1 1 0 0 1 0 2Z" fill="#ef5451" class="fill-ef5451"></path></svg>